<svg width="25.933838" height="23.907654" viewBox="0 0 25.9338 23.9077" fill="none" xmlns="http://www.w3.org/2000/svg" xmlns:xlink="http://www.w3.org/1999/xlink">
	<desc>
			Created with Pixso.
	</desc>
	<defs/>
	<path id="Vector" d="M21.35 22.91L21.23 22.91C20.63 22.91 20.12 22.41 20.07 21.77C20.03 21.1 20.52 20.52 21.16 20.48C21.18 20.48 21.21 20.48 21.24 20.48C21.85 20.48 22.37 20.97 22.41 21.59C22.42 21.84 22.38 22.19 22.13 22.48L22.12 22.49L22.12 22.5C21.92 22.73 21.66 22.87 21.35 22.91ZM7.65 22.9C7 22.9 6.48 22.36 6.48 21.69C6.48 21.03 7 20.49 7.65 20.49C8.3 20.49 8.83 21.03 8.83 21.69C8.83 22.36 8.3 22.9 7.65 22.9Z" fill="#FFFFFF" fill-opacity="1.000000" fill-rule="nonzero"/>
	<path id="Vector" d="M21.27 21.91C21.31 21.9 21.34 21.87 21.35 21.85C21.36 21.84 21.37 21.84 21.38 21.83C21.41 21.79 21.42 21.7 21.42 21.65C21.4 21.55 21.31 21.47 21.24 21.47C21.23 21.47 21.23 21.47 21.23 21.47C21.15 21.48 21.06 21.58 21.07 21.7C21.08 21.82 21.16 21.91 21.23 21.91L21.27 21.91ZM7.65 21.9C7.75 21.9 7.83 21.81 7.83 21.69C7.83 21.58 7.75 21.48 7.65 21.48C7.55 21.48 7.47 21.58 7.47 21.69C7.47 21.81 7.55 21.9 7.65 21.9ZM21.39 23.9C21.35 23.9 21.28 23.9 21.23 23.9C20.1 23.9 19.16 22.99 19.08 21.84C19 20.64 19.89 19.57 21.09 19.48C21.14 19.48 21.19 19.48 21.24 19.48C22.37 19.48 23.33 20.38 23.41 21.53C23.44 22.13 23.26 22.7 22.88 23.14C22.5 23.59 21.97 23.85 21.39 23.9ZM7.65 23.9C6.45 23.9 5.48 22.91 5.48 21.69C5.48 20.47 6.45 19.49 7.65 19.49C8.85 19.49 9.83 20.47 9.83 21.69C9.83 22.91 8.85 23.9 7.65 23.9ZM20.59 17.05L8.56 17.05C8.13 17.05 7.75 16.76 7.64 16.33L3.72 1.94L0.97 1.94C0.45 1.94 0.01 1.51 0.01 0.97C0.01 0.43 0.45 0 0.97 0L4.44 0C4.87 0 5.25 0.29 5.37 0.71L9.28 15.1L19.95 15.1L23.5 6.82L11.68 6.82C11.15 6.82 10.72 6.38 10.72 5.84C10.72 5.31 11.15 4.87 11.68 4.87L24.97 4.87C25.29 4.87 25.6 5.03 25.77 5.31C25.95 5.58 25.98 5.92 25.85 6.23L21.47 16.46C21.31 16.82 20.98 17.05 20.59 17.05Z" fill="#FFFFFF" fill-opacity="1.000000" fill-rule="nonzero"/>
	<path id="Vector" d="M21.27 21.91C21.31 21.9 21.34 21.87 21.35 21.85C21.36 21.84 21.37 21.84 21.38 21.83C21.41 21.79 21.42 21.7 21.42 21.65C21.4 21.55 21.31 21.47 21.24 21.47C21.23 21.47 21.23 21.47 21.23 21.47C21.15 21.48 21.06 21.58 21.07 21.7C21.08 21.82 21.16 21.91 21.23 21.91L21.27 21.91ZM7.65 21.9C7.75 21.9 7.83 21.81 7.83 21.69C7.83 21.58 7.75 21.48 7.65 21.48C7.55 21.48 7.47 21.58 7.47 21.69C7.47 21.81 7.55 21.9 7.65 21.9ZM21.39 23.9C21.35 23.9 21.28 23.9 21.23 23.9C20.1 23.9 19.16 22.99 19.08 21.84C19 20.64 19.89 19.57 21.09 19.48C21.14 19.48 21.19 19.48 21.24 19.48C22.37 19.48 23.33 20.38 23.41 21.53C23.44 22.13 23.26 22.7 22.88 23.14C22.5 23.59 21.97 23.85 21.39 23.9ZM7.65 23.9C6.45 23.9 5.48 22.91 5.48 21.69C5.48 20.47 6.45 19.49 7.65 19.49C8.85 19.49 9.83 20.47 9.83 21.69C9.83 22.91 8.85 23.9 7.65 23.9ZM20.59 17.05L8.56 17.05C8.13 17.05 7.75 16.76 7.64 16.33L3.72 1.94L0.97 1.94C0.45 1.94 0.01 1.51 0.01 0.97C0.01 0.43 0.45 0 0.97 0L4.44 0C4.87 0 5.25 0.29 5.37 0.71L9.28 15.1L19.95 15.1L23.5 6.82L11.68 6.82C11.15 6.82 10.72 6.38 10.72 5.84C10.72 5.31 11.15 4.87 11.68 4.87L24.97 4.87C25.29 4.87 25.6 5.03 25.77 5.31C25.95 5.58 25.98 5.92 25.85 6.23L21.47 16.46C21.31 16.82 20.98 17.05 20.59 17.05Z" fill="#FFFFFF" fill-opacity="1.000000" fill-rule="nonzero"/>
</svg>
